<svg width="256" height="256" viewBox="0 0 256 256" fill="none" xmlns="http://www.w3.org/2000/svg">
<rect width="256" height="256" fill="#141517"/>
<path d="M54.3217 188V67.46H72.0337V107.64V109.608H72.6897L73.5097 107.64L87.2857 67.46H105.49L89.2537 107.148L107.622 188H89.4177L77.6097 133.06H77.1177L72.0337 145.36V188H54.3217ZM115.002 188V170.452C118.774 164.657 122.436 158.562 125.99 152.166C129.543 145.77 132.741 139.347 135.584 132.896C138.481 126.391 140.777 120.104 142.472 114.036C144.166 107.968 145.014 102.392 145.014 97.308C145.014 93.7 144.658 90.338 143.948 87.222C143.237 84.106 141.624 82.548 139.11 82.548C136.595 82.548 134.982 84.106 134.272 87.222C133.561 90.2833 133.206 93.6453 133.206 97.308V105.672H115.494V97.308C115.494 92.4973 115.904 88.1787 116.724 84.352C117.598 80.4707 118.965 77.1907 120.824 74.512C122.682 71.7787 125.115 69.7013 128.122 68.28C131.128 66.8587 134.791 66.148 139.11 66.148C143.428 66.148 147.091 66.8587 150.098 68.28C153.104 69.7013 155.537 71.724 157.396 74.348C159.254 76.972 160.594 80.1427 161.414 83.86C162.288 87.5227 162.726 91.6227 162.726 96.16C162.726 101.572 161.906 107.421 160.266 113.708C158.68 119.94 156.548 126.363 153.87 132.978C151.246 139.538 148.294 146.016 145.014 152.412C141.734 158.753 138.399 164.767 135.01 170.452H163.054V188H115.002ZM183.928 188V93.536H172.12V82.22C176.275 81.4 179.992 79.7327 183.272 77.218C186.552 74.7033 189.121 71.4507 190.98 67.46H201.64V188H183.928Z" fill="white"/>
</svg>
